#!OML:ASF F:\VICON\USERDATA\INSTALL\rory3\rory3.ASF
:FULLY-SPECIFIED
:DEGREES
3382
root 13.9332 17.8112 -10.0092 685.036 -94.6218 -1401.8
lowerback 12.3021 3.77378 2.81116
upperback 1.12613 5.35064 0.35002
thorax -5.46954 2.54308 -2.09492
lowerneck -20.601 -5.03884 -10.9587
upperneck 30.4482 -7.00552 8.91951
head 14.7192 -3.24684 4.20021
rclavicle -5.93124e-014 8.15017e-015
rhumerus -31.1392 -11.2143 -83.4283
rradius 31.6362
rwrist 3.79021
rhand -18.0566 7.8219
rfingers 7.12502
rthumb 8.21573 -21.9984
lclavicle -5.93124e-014 8.15017e-015
lhumerus -39.9987 3.01736 83.5723
lradius 33.5715
lwrist -4.01413
lhand -19.15 25.2651
lfingers 7.12502
lthumb 7.16034 55.124
rfemur 2.95835 -0.969283 27.9527
rtibia 17.1726
rfoot -18.6415 -2.82563
rtoes 0.615849
lfemur -28.5806 -1.83603 -20.103
ltibia 17.3687
lfoot -8.18851 -1.77891
ltoes -27.1399
3383
root 13.8563 17.8115 -10.0121 683.621 -94.6972 -1400.51
lowerback 12.425 3.80093 2.94349
upperback 1.15673 5.40784 0.384947
thorax -5.49366 2.56701 -2.1488
lowerneck -20.6492 -5.04617 -10.9453
upperneck 30.3288 -6.9761 8.86644
head 14.6691 -3.23399 4.1767
rclavicle -6.31141e-015 -1.50082e-014
rhumerus -30.9012 -11.0427 -83.5699
rradius 31.7741
rwrist 3.86679
rhand -17.7311 7.71253
rfingers 7.12502
rthumb 8.52987 -22.0952
lclavicle -6.31141e-015 -1.50082e-014
lhumerus -40.1167 3.60921 83.2017
lradius 33.1744
lwrist -4.31494
lhand -17.5255 24.3049
lfingers 7.12502
lthumb 8.72828 54.1045
rfemur 3.69775 -0.76764 28.1072
rtibia 16.5635
rfoot -18.5202 -2.83765
rtoes 1.57625
lfemur -28.5271 -1.92165 -19.934
ltibia 17.5012
lfoot -7.468 -2.18025
ltoes -24.9018
3384
root 13.7761 17.8047 -10.0099 681.933 -94.8001 -1398.96
lowerback 12.5371 3.80197 3.20745
upperback 1.20003 5.44692 0.408219
thorax -5.48568 2.5797 -2.28331
lowerneck -20.6238 -5.03375 -10.8903
upperneck 30.2392 -6.92764 8.75635
head 14.6088 -3.21915 4.12703
rclavicle -6.04554e-014 1.45113e-014
rhumerus -30.6244 -11.0549 -83.6061
rradius 31.8068
rwrist 4.46399
rhand -17.4791 7.76733
rfingers 7.12502
rthumb 8.773 -22.0303
lclavicle -6.04554e-014 1.45113e-014
lhumerus -40.1889 4.08691 82.8213
lradius 32.6857
lwrist -4.64714
lhand -16.5974 23.7824
lfingers 7.12502
lthumb 9.62379 53.5426
rfemur 4.45536 -0.806527 28.2515
rtibia 15.9599
rfoot -18.3889 -2.7748
rtoes 1.55292
lfemur -28.4736 -1.77089 -19.889
ltibia 17.7005
lfoot -6.66143 -2.54746
ltoes -24.2333
3385
root 13.6947 17.7924 -10.0094 681.312 -94.7315 -1398.38
lowerback 12.5434 3.7937 3.30141
upperback 1.19944 5.44696 0.369684
thorax -5.47714 2.57751 -2.37596
lowerneck -20.5514 -4.98193 -10.6778
upperneck 30.1167 -6.86199 8.58833
head 14.5113 -3.18725 4.0282
rclavicle -1.31098e-013 5.36719e-015
rhumerus -30.3944 -11.2254 -83.644
rradius 31.8099
rwrist 5.11381
rhand -17.4121 7.90917
rfingers 7.12502
rthumb 8.83772 -21.8858
lclavicle -1.31098e-013 5.36719e-015
lhumerus -40.3358 4.38735 82.429
lradius 32.324
lwrist -4.95948
lhand -16.0638 23.5898
lfingers 7.12502
lthumb 10.1386 53.3256
rfemur 5.06786 -0.875507 28.2306
rtibia 15.4094
rfoot -18.1891 -2.81081
rtoes 0.832151
lfemur -28.5321 -1.649 -20.075
ltibia 17.9586
lfoot -5.94135 -2.85108
ltoes -25.0324
3386
root 13.6119 17.7779 -10.0147 682.34 -94.7659 -1399.4
lowerback 12.4948 3.84468 3.25829
upperback 1.19444 5.50604 0.344057
thorax -5.45347 2.60826 -2.38455
lowerneck -20.6912 -4.9772 -10.7431
upperneck 30.1911 -6.85394 8.68182
head 14.5819 -3.17634 4.08239
rclavicle -2.80908e-014 3.97569e-015
rhumerus -30.1228 -11.1901 -83.7622
rradius 31.7537
rwrist 5.33424
rhand -17.1409 8.19409
rfingers 7.12502
rthumb 9.09935 -21.5896
lclavicle -2.80908e-014 3.97569e-015
lhumerus -40.4962 4.89296 82.0143
lradius 32.0433
lwrist -5.2103
lhand -15.5648 23.9041
lfingers 7.12502
lthumb 10.6199 53.6158
rfemur 5.58458 -0.803263 28.1939
rtibia 14.9868
rfoot -18.0811 -2.95783
rtoes -0.261865
lfemur -28.5438 -1.46187 -20.2206
ltibia 18.1953
lfoot -5.15364 -3.14357
ltoes -24.9312
3387
root 13.528 17.7686 -10.0234 683.662 -95.0626 -1400.73
lowerback 12.4757 4.00566 3.30249
upperback 1.20968 5.72296 0.331805
thorax -5.40837 2.71491 -2.45338
lowerneck -20.9511 -5.10569 -11.0274
upperneck 30.3826 -7.04613 9.00895
head 14.7814 -3.24483 4.23859
rclavicle 3.36816e-014 1.72943e-014
rhumerus -29.8189 -11.393 -83.869
rradius 31.7152
rwrist 5.33056
rhand -16.8848 8.54468
rfingers 7.12502
rthumb 9.34649 -21.2281
lclavicle 3.36816e-014 1.72943e-014
lhumerus -40.5166 5.23006 81.667
lradius 31.6977
lwrist -5.17776
lhand -15.4024 24.48
lfingers 7.12502
lthumb 10.7766 54.1835
rfemur 6.08168 -0.587391 28.2873
rtibia 14.6865
rfoot -18.0705 -2.82603
rtoes 0.905864
lfemur -28.4594 -0.955031 -20.253
ltibia 18.3926
lfoot -4.25054 -3.47088
ltoes -25.0288
3388
root 13.4402 17.7698 -10.0273 685.34 -95.32 -1402.51
lowerback 12.539 4.1693 3.21586
upperback 1.2279 5.93027 0.360691
thorax -5.42362 2.81805 -2.41241
lowerneck -21.1293 -5.23123 -11.1046
upperneck 30.5096 -7.18649 8.98469
head 14.9015 -3.31355 4.21745
rclavicle -2.88735e-014 -5.86415e-015
rhumerus -29.624 -11.4368 -83.9074
rradius 31.7888
rwrist 5.3841
rhand -16.7625 8.61948
rfingers 7.12502
rthumb 9.46449 -21.148
lclavicle -2.88735e-014 -5.86415e-015
lhumerus -40.5911 5.22828 81.5493
lradius 31.3899
lwrist -4.44294
lhand -15.1722 25.1669
lfingers 7.12502
lthumb 10.9986 54.8588
rfemur 6.67265 -0.256431 28.2682
rtibia 14.4495
rfoot -18.156 -2.39955
rtoes 5.33946
lfemur -28.1809 -0.727735 -20.227
ltibia 18.6121
lfoot -3.44583 -3.53269
ltoes -23.9166
3389
root 13.3492 17.7673 -10.0259 686.811 -95.4197 -1404.04
lowerback 12.4884 4.25547 3.11147
upperback 1.24501 6.02833 0.370449
thorax -5.38365 2.86999 -2.35482
lowerneck -21.2305 -5.23542 -11.0127
upperneck 30.5576 -7.14609 8.78754
head 14.9262 -3.3088 4.12625
rclavicle -1.21756e-014 2.18663e-015
rhumerus -29.4383 -11.2324 -84.021
rradius 31.8508
rwrist 5.51428
rhand -16.775 8.59695
rfingers 7.12502
rthumb 9.45249 -21.1711
lclavicle -1.21756e-014 2.18663e-015
lhumerus -40.8109 5.16738 81.5167
lradius 31.2018
lwrist -3.87546
lhand -15.264 25.4891
lfingers 7.12502
lthumb 10.9101 55.1857
rfemur 7.17288 -0.198741 28.122
rtibia 14.2706
rfoot -18.1644 -2.11308
rtoes 6.1819
lfemur -27.8913 -1.01427 -20.1542
ltibia 18.8746
lfoot -2.79856 -3.12419
ltoes -22.6046
3390
root 13.2562 17.756 -10.0267 687.531 -95.5717 -1404.71
lowerback 12.2943 4.31917 3.12363
upperback 1.2468 6.1067 0.332839
thorax -5.26436 2.91225 -2.3955
lowerneck -21.2627 -5.1939 -10.8356
upperneck 30.5409 -7.11955 8.71607
head 14.9097 -3.2847 4.06939
rclavicle 1.6114e-014 3.8763e-015
rhumerus -29.1462 -10.9393 -84.3062
rradius 31.7858
rwrist 5.40422
rhand -17.0115 8.8152
rfingers 7.12502
rthumb 9.22422 -20.963
lclavicle 1.6114e-014 3.8763e-015
lhumerus -41.0364 5.25689 81.295
lradius 30.9605
lwrist -3.95807
lhand -15.9936 25.6201
lfingers 7.12502
lthumb 10.2063 55.3525
rfemur 7.51325 -0.288007 28.1048
rtibia 14.1502
rfoot -18.0376 -2.14851
rtoes 3.0125
lfemur -27.7005 -1.25379 -20.0411
ltibia 19.1668
lfoot -2.48105 -2.63378
ltoes -23.899
3391
root 13.1592 17.7475 -10.0316 688.798 -95.7871 -1405.99
lowerback 12.1668 4.3944 3.09127
upperback 1.26087 6.19382 0.262163
thorax -5.16928 2.95858 -2.45208
lowerneck -21.2993 -5.1663 -10.6453
upperneck 30.5014 -7.1452 8.72209
head 14.8942 -3.27066 4.03205
rclavicle -3.1731e-014 8.94531e-016
rhumerus -28.8552 -10.4564 -84.7529
rradius 31.8309
rwrist 4.71205
rhand -17.4908 8.83363
rfingers 7.12502
rthumb 8.76178 -20.9645
lclavicle -3.1731e-014 8.94531e-016
lhumerus -41.1503 5.61651 80.9353
lradius 30.6159
lwrist -4.08432
lhand -16.9909 26.0843
lfingers 7.12502
lthumb 9.24411 55.8616
rfemur 7.8636 -0.23038 28.1017
rtibia 14.1504
rfoot -17.8812 -2.26116
rtoes 0.626278
lfemur -27.3644 -1.38873 -19.9204
ltibia 19.4731
lfoot -2.33916 -1.97318
ltoes -23.7282
3392
root 13.0594 17.7426 -10.034 690.747 -96.0242 -1408.02
lowerback 12.1236 4.49128 3.03479
upperback 1.27251 6.30727 0.157918
thorax -5.12053 3.01649 -2.54163
lowerneck -21.3088 -5.12979 -10.5454
upperneck 30.5002 -7.15877 8.802
head 14.8965 -3.25443 4.0459
rclavicle -1.00945e-013 2.18663e-015
rhumerus -28.6249 -10.0194 -85.2828
rradius 31.9744
rwrist 3.89369
rhand -18.0261 8.37271
rfingers 7.12502
rthumb 8.24511 -21.4464
lclavicle -1.00945e-013 2.18663e-015
lhumerus -41.2059 6.1208 80.4705
lradius 30.1264
lwrist -4.28305
lhand -17.2936 26.109
lfingers 7.12502
lthumb 8.95206 55.8991
rfemur 8.25179 0.0270347 27.9918
rtibia 14.306
rfoot -17.9774 -2.12307
rtoes 1.06752
lfemur -26.8075 -1.81688 -19.7157
ltibia 19.7529
lfoot -2.25644 -0.928039
ltoes -20.9203
3393
root 12.9581 17.7351 -10.0309 693.208 -96.2848 -1410.5
lowerback 12.0447 4.6181 2.914
upperback 1.22782 6.45624 0.0879332
thorax -5.1203 3.0924 -2.56545
lowerneck -21.3743 -5.15657 -10.8586
upperneck 30.6871 -7.18854 9.0569
head 15.0292 -3.27348 4.21026
rclavicle -2.31895e-014 -3.68994e-015
rhumerus -28.4765 -9.70733 -85.6022
rradius 32.0171
rwrist 3.73039
rhand -18.3097 8.18593
rfingers 7.12502
rthumb 7.97147 -21.6438
lclavicle -2.31895e-014 -3.68994e-015
lhumerus -41.4296 6.24994 80.1157
lradius 29.8294
lwrist -4.37962
lhand -17.0565 26.1999
lfingers 7.12502
lthumb 9.18078 55.98
rfemur 8.49563 0.0457199 27.7415
rtibia 14.6079
rfoot -18.1289 -1.75132
rtoes 1.88398
lfemur -26.2557 -2.17309 -19.6312
ltibia 19.9468
lfoot -2.2831 0.0149262
ltoes -18.99
3394
root 12.8512 17.7346 -10.0297 697.222 -96.5855 -1414.42
lowerback 11.7945 4.77183 2.46721
upperback 1.13147 6.59967 0.0476602
thorax -5.12066 3.17371 -2.36576
lowerneck -21.3571 -5.11948 -11.0608
upperneck 30.8343 -7.10982 9.1438
head 15.0963 -3.25795 4.30456
rclavicle -3.2728e-014 7.34261e-015
rhumerus -28.393 -9.3905 -85.693
rradius 31.9856
rwrist 4.09007
rhand -18.1657 8.20465
rfingers 7.12502
rthumb 8.11041 -21.6197
lclavicle -3.2728e-014 7.34261e-015
lhumerus -41.8329 6.10124 80.007
lradius 29.7903
lwrist -3.94215
lhand -16.5821 26.3475
lfingers 7.12502
lthumb 9.63853 56.107
rfemur 8.84202 0.142154 27.3272
rtibia 14.4078
rfoot -17.7773 -1.44252
rtoes 1.73319
lfemur -25.9457 -2.1583 -19.798
ltibia 20.3189
lfoot -2.29069 0.586514
ltoes -16.8489
3395
root 12.7436 17.7349 -10.0268 699.629 -96.8023 -1416.74
lowerback 11.6049 4.84996 2.11411
upperback 1.0103 6.66137 0.0541693
thorax -5.18114 3.21167 -2.16421
lowerneck -21.3125 -5.01489 -10.8807
upperneck 30.9528 -6.96899 8.93186
head 15.1014 -3.21043 4.2144
rclavicle -7.92157e-014 -3.05631e-015
rhumerus -28.349 -8.94984 -85.7675
rradius 32.0269
rwrist 4.13641
rhand -17.8987 8.30493
rfingers 7.12502
rthumb 8.36808 -21.5093
lclavicle -7.92157e-014 -3.05631e-015
lhumerus -42.2376 6.18541 79.9153
lradius 29.6324
lwrist -3.75252
lhand -16.4441 26.0465
lfingers 7.12502
lthumb 9.77175 55.7998
rfemur 9.08001 0.456958 27.1128
rtibia 14.4565
rfoot -17.5265 -1.44325
rtoes 2.10515
lfemur -25.7359 -0.854068 -20.5366
ltibia 20.4157
lfoot -1.87808 -0.0520755
ltoes -23.9672
3396
root 12.6354 17.7873 -10.0209 700.545 -96.8943 -1417.6
lowerback 11.487 4.87809 2.02016
upperback 0.922295 6.68695 0.0108822
thorax -5.21278 3.22622 -2.15537
lowerneck -21.2365 -4.9471 -10.5454
upperneck 30.9506 -6.88788 8.60601
head 15.0399 -3.18198 4.03189
rclavicle 3.15804e-014 -1.2424e-015
rhumerus -28.2874 -8.49664 -86.0002
rradius 32.151
rwrist 3.82172
rhand -17.923 8.32926
rfingers 7.12502
rthumb 8.34466 -21.4859
lclavicle 3.15804e-014 -1.2424e-015
lhumerus -42.5268 6.53382 79.6311
lradius 29.403
lwrist -4.05184
lhand -16.7586 26.0065
lfingers 7.12502
lthumb 9.46826 55.7738
rfemur 9.31139 0.484735 26.963
rtibia 14.5347
rfoot -17.2666 -1.39617
rtoes 2.16572
lfemur -25.2002 -3.34527 -19.4149
ltibia 20.4148
lfoot -0.652897 2.80974
ltoes -1.83708
